<svg width="31" height="21" viewBox="0 0 31 21" fill="none" xmlns="http://www.w3.org/2000/svg">
<rect width="31" height="20.6667" rx="4" fill="#282828"/>
<g opacity="0.01">
<rect x="3.00391" y="2.06667" width="25.0002" height="16.5333" fill="white"/>
</g>
<rect x="12.207" y="4.94708" width="6.59396" height="10.7725" fill="#F26122"/>
<path d="M12.9169 10.3333C12.906 8.23666 13.8583 6.25106 15.5002 4.94709C12.691 2.73788 8.65565 3.05868 6.23077 5.68399C3.80589 8.30929 3.80589 12.3574 6.23077 14.9827C8.65565 17.608 12.691 17.9288 15.5002 15.7196C13.8583 14.4156 12.906 12.43 12.9169 10.3333Z" fill="#EA1D25"/>
<path fill-rule="evenodd" clip-rule="evenodd" d="M25.9241 14.3569V14.5765H25.8853V14.3569H25.7949V14.3117H26.021V14.3569H25.9241ZM26.3636 14.3117V14.5765H26.3183V14.3763L26.2473 14.5506H26.1956L26.1181 14.3763V14.5765H26.0729V14.3117H26.1375L26.2215 14.499L26.299 14.3117H26.3636Z" fill="#F69E1E"/>
<path d="M26.5825 10.3333C26.5808 12.955 25.0834 15.3459 22.7255 16.4919C20.3676 17.6379 17.5624 17.338 15.5 15.7196C18.4709 13.3803 18.9853 9.07673 16.6496 6.10313C16.3148 5.67253 15.9287 5.28432 15.5 4.94708C17.5624 3.32862 20.3676 3.02879 22.7255 4.17478C25.0834 5.32076 26.5808 7.71167 26.5825 10.3333Z" fill="#F69E1E"/>
</svg>
