<svg width="48" height="32" viewBox="0 0 48 32" fill="none" xmlns="http://www.w3.org/2000/svg">
<rect width="48" height="32" rx="4" fill="#282828"/>
<path fill-rule="evenodd" clip-rule="evenodd" d="M30.19 17.44C30.1961 15.9153 28.9386 15.2567 27.9627 14.7456C27.3449 14.4221 26.84 14.1577 26.84 13.77C26.84 13.44 27.16 13.09 27.84 13C28.6493 12.9199 29.4651 13.0617 30.2 13.41L30.62 11.41C29.9036 11.1414 29.1451 11.0025 28.38 11C26.02 11 24.38 12.26 24.38 14.06C24.38 15.39 25.57 16.13 26.47 16.57C27.37 17.01 27.72 17.32 27.71 17.72C27.71 18.34 26.97 18.62 26.28 18.63C25.4289 18.641 24.589 18.4344 23.84 18.03L23.41 20.03C24.2575 20.3608 25.1603 20.5271 26.07 20.52C28.58 20.52 30.23 19.28 30.24 17.36L30.19 17.44ZM23.7 11.16L21.7 20.41H19.3L21.3 11.16H23.7ZM33.76 17.16L35.02 13.69L35.75 17.16H33.76ZM38.65 20.44H36.43L36.14 19.06H33.13L32.64 20.44H30.12L33.71 11.87C33.8755 11.4623 34.27 11.194 34.71 11.19H36.71L38.65 20.44ZM16.45 20.38L20.33 11.13H17.73L15.24 17.42L14.24 12.07C14.1515 11.5263 13.6808 11.1278 13.13 11.13H9.06L9 11.4C9.81634 11.5597 10.6093 11.8218 11.36 12.18C11.6798 12.3303 11.8964 12.6383 11.93 12.99L13.84 20.38H16.45Z" fill="white"/>
</svg>
