<svg width="30" height="20" viewBox="0 0 30 20" fill="none" xmlns="http://www.w3.org/2000/svg">
<rect width="30" height="20" rx="4" fill="#282828"/>
<path fill-rule="evenodd" clip-rule="evenodd" d="M18.8688 10.9C18.8727 9.94703 18.0867 9.53543 17.4768 9.21601C17.0907 9.0138 16.7751 8.84853 16.7751 8.60625C16.7751 8.4 16.9751 8.18125 17.4001 8.125C17.9059 8.07496 18.4158 8.16354 18.8751 8.38125L19.1376 7.13125C18.6899 6.96335 18.2158 6.87658 17.7376 6.875C16.2626 6.875 15.2376 7.6625 15.2376 8.7875C15.2376 9.61875 15.9813 10.0813 16.5438 10.3563C17.1063 10.6313 17.3251 10.825 17.3188 11.075C17.3188 11.4625 16.8563 11.6375 16.4251 11.6438C15.8931 11.6506 15.3682 11.5215 14.9001 11.2688L14.6313 12.5187C15.161 12.7255 15.7253 12.8295 16.2938 12.825C17.8626 12.825 18.8938 12.05 18.9001 10.85L18.8688 10.9ZM14.8124 6.975L13.5624 12.7562H12.0624L13.3124 6.975H14.8124ZM21.0999 10.725L21.8874 8.55625L22.3436 10.725H21.0999ZM24.1563 12.775H22.7688L22.5876 11.9125H20.7063L20.4001 12.775H18.8251L21.0688 7.41875C21.1723 7.16391 21.4188 6.99626 21.6938 6.99375H22.9438L24.1563 12.775ZM10.2812 12.7375L12.7063 6.95625H11.0812L9.525 10.8875L8.9 7.54375C8.84468 7.20397 8.5505 6.95485 8.20625 6.95625H5.6625L5.625 7.125C6.13521 7.22482 6.63079 7.38862 7.1 7.6125C7.29985 7.70646 7.43528 7.89891 7.45625 8.11875L8.65 12.7375H10.2812Z" fill="white"/>
</svg>
