<svg width="24" height="25" viewBox="0 0 24 25" fill="none" xmlns="http://www.w3.org/2000/svg">
<mask id="mask0_808_1607" style="mask-type:alpha" maskUnits="userSpaceOnUse" x="0" y="0" width="24" height="25">
<rect y="0.5" width="24" height="24" fill="#D9D9D9"/>
</mask>
<g mask="url(#mask0_808_1607)">
<path d="M4 17.5V19.5H20V17.5H4ZM4 6.5H6.2C6.11667 6.35 6.0625 6.19167 6.0375 6.025C6.0125 5.85833 6 5.68333 6 5.5C6 4.66667 6.29167 3.95833 6.875 3.375C7.45833 2.79167 8.16667 2.5 9 2.5C9.5 2.5 9.9625 2.62917 10.3875 2.8875C10.8125 3.14583 11.1833 3.46667 11.5 3.85L12 4.5L12.5 3.85C12.8 3.45 13.1667 3.125 13.6 2.875C14.0333 2.625 14.5 2.5 15 2.5C15.8333 2.5 16.5417 2.79167 17.125 3.375C17.7083 3.95833 18 4.66667 18 5.5C18 5.68333 17.9875 5.85833 17.9625 6.025C17.9375 6.19167 17.8833 6.35 17.8 6.5H20C20.55 6.5 21.0208 6.69583 21.4125 7.0875C21.8042 7.47917 22 7.95 22 8.5V19.5C22 20.05 21.8042 20.5208 21.4125 20.9125C21.0208 21.3042 20.55 21.5 20 21.5H4C3.45 21.5 2.97917 21.3042 2.5875 20.9125C2.19583 20.5208 2 20.05 2 19.5V8.5C2 7.95 2.19583 7.47917 2.5875 7.0875C2.97917 6.69583 3.45 6.5 4 6.5ZM4 14.5H20V8.5H14.9L17 11.35L15.4 12.5L12 7.9L8.6 12.5L7 11.35L9.05 8.5H4V14.5ZM9 6.5C9.28333 6.5 9.52083 6.40417 9.7125 6.2125C9.90417 6.02083 10 5.78333 10 5.5C10 5.21667 9.90417 4.97917 9.7125 4.7875C9.52083 4.59583 9.28333 4.5 9 4.5C8.71667 4.5 8.47917 4.59583 8.2875 4.7875C8.09583 4.97917 8 5.21667 8 5.5C8 5.78333 8.09583 6.02083 8.2875 6.2125C8.47917 6.40417 8.71667 6.5 9 6.5ZM15 6.5C15.2833 6.5 15.5208 6.40417 15.7125 6.2125C15.9042 6.02083 16 5.78333 16 5.5C16 5.21667 15.9042 4.97917 15.7125 4.7875C15.5208 4.59583 15.2833 4.5 15 4.5C14.7167 4.5 14.4792 4.59583 14.2875 4.7875C14.0958 4.97917 14 5.21667 14 5.5C14 5.78333 14.0958 6.02083 14.2875 6.2125C14.4792 6.40417 14.7167 6.5 15 6.5Z" fill="#282828"/>
</g>
</svg>
