<svg width="48" height="32" viewBox="0 0 48 32" fill="none" xmlns="http://www.w3.org/2000/svg">
<rect width="48" height="32" rx="4" fill="#212B36"/>
<path d="M9.90909 14V13.136L9.85309 12.952V11.44C9.85309 11.1467 9.76509 10.92 9.58909 10.76C9.41309 10.5947 9.14643 10.512 8.78909 10.512C8.54909 10.512 8.31176 10.5493 8.07709 10.624C7.84776 10.6987 7.65309 10.8027 7.49309 10.936L7.10109 10.208C7.33043 10.032 7.60243 9.90133 7.91709 9.816C8.23709 9.72533 8.56776 9.68 8.90909 9.68C9.52776 9.68 10.0051 9.82933 10.3411 10.128C10.6824 10.4213 10.8531 10.8773 10.8531 11.496V14H9.90909ZM8.56509 14.056C8.24509 14.056 7.96509 14.0027 7.72509 13.896C7.48509 13.784 7.29843 13.632 7.16509 13.44C7.03709 13.2427 6.97309 13.0213 6.97309 12.776C6.97309 12.536 7.02909 12.32 7.14109 12.128C7.25843 11.936 7.44776 11.784 7.70909 11.672C7.97043 11.56 8.31709 11.504 8.74909 11.504H9.98909V12.168H8.82109C8.47976 12.168 8.25043 12.224 8.13309 12.336C8.01576 12.4427 7.95709 12.576 7.95709 12.736C7.95709 12.9173 8.02909 13.0613 8.17309 13.168C8.31709 13.2747 8.51709 13.328 8.77309 13.328C9.01843 13.328 9.23709 13.272 9.42909 13.16C9.62643 13.048 9.76776 12.8827 9.85309 12.664L10.0211 13.264C9.92509 13.5147 9.75176 13.7093 9.50109 13.848C9.25576 13.9867 8.94376 14.056 8.56509 14.056ZM13.9523 14.056C13.5416 14.056 13.1709 13.9653 12.8403 13.784C12.5149 13.5973 12.2589 13.3413 12.0723 13.016C11.8856 12.6907 11.7923 12.3067 11.7923 11.864C11.7923 11.4213 11.8856 11.0373 12.0723 10.712C12.2589 10.3867 12.5149 10.1333 12.8403 9.952C13.1709 9.77067 13.5416 9.68 13.9523 9.68C14.3096 9.68 14.6296 9.76 14.9123 9.92C15.1949 10.0747 15.4189 10.312 15.5843 10.632C15.7496 10.952 15.8323 11.3627 15.8323 11.864C15.8323 12.36 15.7523 12.7707 15.5923 13.096C15.4323 13.416 15.2109 13.656 14.9283 13.816C14.6456 13.976 14.3203 14.056 13.9523 14.056ZM14.0723 13.2C14.3123 13.2 14.5256 13.1467 14.7123 13.04C14.9043 12.9333 15.0563 12.7787 15.1683 12.576C15.2856 12.3733 15.3443 12.136 15.3443 11.864C15.3443 11.5867 15.2856 11.3493 15.1683 11.152C15.0563 10.9493 14.9043 10.7947 14.7123 10.688C14.5256 10.5813 14.3123 10.528 14.0723 10.528C13.8323 10.528 13.6163 10.5813 13.4243 10.688C13.2376 10.7947 13.0856 10.9493 12.9683 11.152C12.8563 11.3493 12.8003 11.5867 12.8003 11.864C12.8003 12.136 12.8563 12.3733 12.9683 12.576C13.0856 12.7787 13.2376 12.9333 13.4243 13.04C13.6163 13.1467 13.8323 13.2 14.0723 13.2ZM15.3683 14V12.992L15.4083 11.856L15.3283 10.72V8.064H16.3203V14H15.3683ZM18.7725 14L16.9405 9.728H17.9805L19.5565 13.496H19.0445L20.6765 9.728H21.6365L19.8045 14H18.7725ZM24.7607 14V13.136L24.7047 12.952V11.44C24.7047 11.1467 24.6167 10.92 24.4407 10.76C24.2647 10.5947 23.998 10.512 23.6407 10.512C23.4007 10.512 23.1633 10.5493 22.9287 10.624C22.6993 10.6987 22.5047 10.8027 22.3447 10.936L21.9527 10.208C22.182 10.032 22.454 9.90133 22.7687 9.816C23.0887 9.72533 23.4193 9.68 23.7607 9.68C24.3793 9.68 24.8567 9.82933 25.1927 10.128C25.534 10.4213 25.7047 10.8773 25.7047 11.496V14H24.7607ZM23.4167 14.056C23.0967 14.056 22.8167 14.0027 22.5767 13.896C22.3367 13.784 22.15 13.632 22.0167 13.44C21.8887 13.2427 21.8247 13.0213 21.8247 12.776C21.8247 12.536 21.8807 12.32 21.9927 12.128C22.11 11.936 22.2993 11.784 22.5607 11.672C22.822 11.56 23.1687 11.504 23.6007 11.504H24.8407V12.168H23.6727C23.3313 12.168 23.102 12.224 22.9847 12.336C22.8673 12.4427 22.8087 12.576 22.8087 12.736C22.8087 12.9173 22.8807 13.0613 23.0247 13.168C23.1687 13.2747 23.3687 13.328 23.6247 13.328C23.87 13.328 24.0887 13.272 24.2807 13.16C24.478 13.048 24.6193 12.8827 24.7047 12.664L24.8727 13.264C24.7767 13.5147 24.6033 13.7093 24.3527 13.848C24.1073 13.9867 23.7953 14.056 23.4167 14.056ZM29.412 9.68C29.7534 9.68 30.0574 9.74667 30.324 9.88C30.596 10.0133 30.8094 10.2187 30.964 10.496C31.1187 10.768 31.196 11.12 31.196 11.552V14H30.196V11.68C30.196 11.3013 30.1054 11.0187 29.924 10.832C29.748 10.6453 29.5 10.552 29.18 10.552C28.9454 10.552 28.7374 10.6 28.556 10.696C28.3747 10.792 28.2334 10.936 28.132 11.128C28.036 11.3147 27.988 11.552 27.988 11.84V14H26.988V9.728H27.94V10.88L27.772 10.528C27.9214 10.256 28.1374 10.048 28.42 9.904C28.708 9.75467 29.0387 9.68 29.412 9.68ZM34.4324 14.056C33.9844 14.056 33.5844 13.9627 33.2324 13.776C32.8857 13.584 32.6137 13.3227 32.4164 12.992C32.2191 12.6613 32.1204 12.2853 32.1204 11.864C32.1204 11.4373 32.2191 11.0613 32.4164 10.736C32.6137 10.4053 32.8857 10.1467 33.2324 9.96C33.5844 9.77333 33.9844 9.68 34.4324 9.68C34.8484 9.68 35.2137 9.76533 35.5284 9.936C35.8484 10.1013 36.0911 10.3467 36.2564 10.672L35.4884 11.12C35.3604 10.9173 35.2031 10.768 35.0164 10.672C34.8351 10.576 34.6377 10.528 34.4244 10.528C34.1791 10.528 33.9577 10.5813 33.7604 10.688C33.5631 10.7947 33.4084 10.9493 33.2964 11.152C33.1844 11.3493 33.1284 11.5867 33.1284 11.864C33.1284 12.1413 33.1844 12.3813 33.2964 12.584C33.4084 12.7813 33.5631 12.9333 33.7604 13.04C33.9577 13.1467 34.1791 13.2 34.4244 13.2C34.6377 13.2 34.8351 13.152 35.0164 13.056C35.2031 12.96 35.3604 12.8107 35.4884 12.608L36.2564 13.056C36.0911 13.376 35.8484 13.624 35.5284 13.8C35.2137 13.9707 34.8484 14.056 34.4324 14.056ZM39.0663 14.056C38.5917 14.056 38.1757 13.9627 37.8183 13.776C37.4663 13.584 37.1917 13.3227 36.9943 12.992C36.8023 12.6613 36.7063 12.2853 36.7063 11.864C36.7063 11.4373 36.7997 11.0613 36.9863 10.736C37.1783 10.4053 37.4397 10.1467 37.7703 9.96C38.1063 9.77333 38.4877 9.68 38.9143 9.68C39.3303 9.68 39.701 9.77067 40.0263 9.952C40.3517 10.1333 40.6077 10.3893 40.7943 10.72C40.981 11.0507 41.0743 11.44 41.0743 11.888C41.0743 11.9307 41.0717 11.9787 41.0663 12.032C41.0663 12.0853 41.0637 12.136 41.0583 12.184H37.4983V11.52H40.5303L40.1383 11.728C40.1437 11.4827 40.093 11.2667 39.9863 11.08C39.8797 10.8933 39.733 10.7467 39.5463 10.64C39.365 10.5333 39.1543 10.48 38.9143 10.48C38.669 10.48 38.453 10.5333 38.2663 10.64C38.085 10.7467 37.941 10.896 37.8343 11.088C37.733 11.2747 37.6823 11.496 37.6823 11.752V11.912C37.6823 12.168 37.741 12.3947 37.8583 12.592C37.9757 12.7893 38.141 12.9413 38.3543 13.048C38.5677 13.1547 38.813 13.208 39.0903 13.208C39.3303 13.208 39.5463 13.1707 39.7383 13.096C39.9303 13.0213 40.101 12.904 40.2503 12.744L40.7863 13.36C40.5943 13.584 40.3517 13.7573 40.0583 13.88C39.7703 13.9973 39.4397 14.056 39.0663 14.056ZM8.46931 24.056C8.12265 24.056 7.80531 23.976 7.51731 23.816C7.23465 23.656 7.00798 23.416 6.83731 23.096C6.67198 22.7707 6.58931 22.36 6.58931 21.864C6.58931 21.3627 6.66931 20.952 6.82931 20.632C6.99465 20.312 7.21865 20.0747 7.50131 19.92C7.78398 19.76 8.10665 19.68 8.46931 19.68C8.89065 19.68 9.26131 19.7707 9.58131 19.952C9.90665 20.1333 10.1626 20.3867 10.3493 20.712C10.5413 21.0373 10.6373 21.4213 10.6373 21.864C10.6373 22.3067 10.5413 22.6933 10.3493 23.024C10.1626 23.3493 9.90665 23.6027 9.58131 23.784C9.26131 23.9653 8.89065 24.056 8.46931 24.056ZM6.10131 25.552V19.728H7.05331V20.736L7.02131 21.872L7.10131 23.008V25.552H6.10131ZM8.35731 23.2C8.59731 23.2 8.81065 23.1467 8.99731 23.04C9.18931 22.9333 9.34131 22.7787 9.45331 22.576C9.56531 22.3733 9.62131 22.136 9.62131 21.864C9.62131 21.5867 9.56531 21.3493 9.45331 21.152C9.34131 20.9493 9.18931 20.7947 8.99731 20.688C8.81065 20.5813 8.59731 20.528 8.35731 20.528C8.11731 20.528 7.90131 20.5813 7.70931 20.688C7.51731 20.7947 7.36531 20.9493 7.25331 21.152C7.14131 21.3493 7.08531 21.5867 7.08531 21.864C7.08531 22.136 7.14131 22.3733 7.25331 22.576C7.36531 22.7787 7.51731 22.9333 7.70931 23.04C7.90131 23.1467 8.11731 23.2 8.35731 23.2ZM14.163 24V23.136L14.107 22.952V21.44C14.107 21.1467 14.019 20.92 13.843 20.76C13.667 20.5947 13.4003 20.512 13.043 20.512C12.803 20.512 12.5657 20.5493 12.331 20.624C12.1017 20.6987 11.907 20.8027 11.747 20.936L11.355 20.208C11.5843 20.032 11.8563 19.9013 12.171 19.816C12.491 19.7253 12.8217 19.68 13.163 19.68C13.7817 19.68 14.259 19.8293 14.595 20.128C14.9363 20.4213 15.107 20.8773 15.107 21.496V24H14.163ZM12.819 24.056C12.499 24.056 12.219 24.0027 11.979 23.896C11.739 23.784 11.5523 23.632 11.419 23.44C11.291 23.2427 11.227 23.0213 11.227 22.776C11.227 22.536 11.283 22.32 11.395 22.128C11.5123 21.936 11.7017 21.784 11.963 21.672C12.2243 21.56 12.571 21.504 13.003 21.504H14.243V22.168H13.075C12.7337 22.168 12.5043 22.224 12.387 22.336C12.2697 22.4427 12.211 22.576 12.211 22.736C12.211 22.9173 12.283 23.0613 12.427 23.168C12.571 23.2747 12.771 23.328 13.027 23.328C13.2723 23.328 13.491 23.272 13.683 23.16C13.8803 23.048 14.0217 22.8827 14.107 22.664L14.275 23.264C14.179 23.5147 14.0057 23.7093 13.755 23.848C13.5097 23.9867 13.1977 24.056 12.819 24.056ZM16.6643 25.608C16.4563 25.608 16.2483 25.5733 16.0403 25.504C15.8323 25.4347 15.6589 25.3387 15.5202 25.216L15.9202 24.48C16.0216 24.5707 16.1363 24.6427 16.2643 24.696C16.3923 24.7493 16.5229 24.776 16.6562 24.776C16.8376 24.776 16.9843 24.7307 17.0963 24.64C17.2083 24.5493 17.3123 24.3973 17.4083 24.184L17.6562 23.624L17.7363 23.504L19.3523 19.728H20.3123L18.3123 24.344C18.1789 24.664 18.0296 24.9173 17.8643 25.104C17.7043 25.2907 17.5229 25.4213 17.3203 25.496C17.1229 25.5707 16.9043 25.608 16.6643 25.608ZM17.5443 24.152L15.6162 19.728H16.6562L18.2243 23.416L17.5443 24.152ZM26.3293 19.68C26.6706 19.68 26.9719 19.7467 27.2333 19.88C27.4999 20.0133 27.7079 20.2187 27.8573 20.496C28.0066 20.768 28.0813 21.12 28.0813 21.552V24H27.0813V21.68C27.0813 21.3013 26.9986 21.0187 26.8333 20.832C26.6679 20.6453 26.4306 20.552 26.1213 20.552C25.9026 20.552 25.7079 20.6 25.5373 20.696C25.3719 20.792 25.2413 20.9333 25.1453 21.12C25.0546 21.3067 25.0093 21.544 25.0093 21.832V24H24.0093V21.68C24.0093 21.3013 23.9266 21.0187 23.7613 20.832C23.5959 20.6453 23.3586 20.552 23.0493 20.552C22.8306 20.552 22.6359 20.6 22.4653 20.696C22.2999 20.792 22.1693 20.9333 22.0733 21.12C21.9826 21.3067 21.9373 21.544 21.9373 21.832V24H20.9373V19.728H21.8893V20.864L21.7213 20.528C21.8653 20.2507 22.0733 20.04 22.3453 19.896C22.6226 19.752 22.9373 19.68 23.2893 19.68C23.6893 19.68 24.0359 19.7787 24.3293 19.976C24.6279 20.1733 24.8253 20.472 24.9213 20.872L24.5293 20.736C24.6679 20.416 24.8973 20.16 25.2173 19.968C25.5373 19.776 25.9079 19.68 26.3293 19.68ZM31.3749 24.056C30.9003 24.056 30.4843 23.9627 30.1269 23.776C29.7749 23.584 29.5003 23.3227 29.3029 22.992C29.1109 22.6613 29.0149 22.2853 29.0149 21.864C29.0149 21.4373 29.1083 21.0613 29.2949 20.736C29.4869 20.4053 29.7483 20.1467 30.0789 19.96C30.4149 19.7733 30.7963 19.68 31.2229 19.68C31.6389 19.68 32.0096 19.7707 32.3349 19.952C32.6603 20.1333 32.9163 20.3893 33.1029 20.72C33.2896 21.0507 33.3829 21.44 33.3829 21.888C33.3829 21.9307 33.3803 21.9787 33.3749 22.032C33.3749 22.0853 33.3723 22.136 33.3669 22.184H29.8069V21.52H32.8389L32.4469 21.728C32.4523 21.4827 32.4016 21.2667 32.2949 21.08C32.1883 20.8933 32.0416 20.7467 31.8549 20.64C31.6736 20.5333 31.4629 20.48 31.2229 20.48C30.9776 20.48 30.7616 20.5333 30.5749 20.64C30.3936 20.7467 30.2496 20.896 30.1429 21.088C30.0416 21.2747 29.9909 21.496 29.9909 21.752V21.912C29.9909 22.168 30.0496 22.3947 30.1669 22.592C30.2843 22.7893 30.4496 22.9413 30.6629 23.048C30.8763 23.1547 31.1216 23.208 31.3989 23.208C31.6389 23.208 31.8549 23.1707 32.0469 23.096C32.2389 23.0213 32.4096 22.904 32.5589 22.744L33.0949 23.36C32.9029 23.584 32.6603 23.7573 32.3669 23.88C32.0789 23.9973 31.7483 24.056 31.3749 24.056ZM36.7675 19.68C37.1088 19.68 37.4128 19.7467 37.6795 19.88C37.9515 20.0133 38.1648 20.2187 38.3195 20.496C38.4742 20.768 38.5515 21.12 38.5515 21.552V24H37.5515V21.68C37.5515 21.3013 37.4608 21.0187 37.2795 20.832C37.1035 20.6453 36.8555 20.552 36.5355 20.552C36.3008 20.552 36.0928 20.6 35.9115 20.696C35.7302 20.792 35.5888 20.936 35.4875 21.128C35.3915 21.3147 35.3435 21.552 35.3435 21.84V24H34.3435V19.728H35.2955V20.88L35.1275 20.528C35.2768 20.256 35.4928 20.048 35.7755 19.904C36.0635 19.7547 36.3942 19.68 36.7675 19.68ZM41.4281 24.056C40.9587 24.056 40.5961 23.936 40.3401 23.696C40.0841 23.4507 39.9561 23.0907 39.9561 22.616V18.784H40.9561V22.592C40.9561 22.7947 41.0067 22.952 41.1081 23.064C41.2147 23.176 41.3614 23.232 41.5481 23.232C41.7721 23.232 41.9587 23.1733 42.1081 23.056L42.3881 23.768C42.2707 23.864 42.1267 23.936 41.9561 23.984C41.7854 24.032 41.6094 24.056 41.4281 24.056ZM39.2521 20.56V19.76H42.1001V20.56H39.2521Z" fill="white"/>
</svg>
