<svg width="48" height="32" viewBox="0 0 48 32" fill="none" xmlns="http://www.w3.org/2000/svg">
<rect width="48" height="32" rx="4" fill="#282828"/>
<g clip-path="url(#clip0_1203_432)">
<path d="M12 6.63084V25.3692C12 26.2661 12.7351 27 13.6335 27H24.8471C33.3247 27 37 22.2624 37 15.9755C37 9.72128 33.3247 5 24.8471 5H13.6335C12.7351 5 12 5.73388 12 6.63084Z" fill="white"/>
<path d="M19.5059 9.59891V23.4447H25.5415C31.0217 23.4447 33.3984 20.3543 33.3984 15.9836C33.3984 11.8005 31.0217 8.55518 25.5415 8.55518H20.5513C19.9714 8.55518 19.5059 9.02812 19.5059 9.59891Z" fill="#CC0066"/>
<path d="M24.8472 25.5078H15.0955C14.2297 25.5078 13.5273 24.8065 13.5273 23.9421V8.06594C13.5273 7.2016 14.2297 6.50034 15.0955 6.50034H24.8472C34.1007 6.50034 35.481 12.4447 35.481 15.9837C35.481 22.1238 31.6995 25.5078 24.8472 25.5078ZM15.0955 7.0222C14.5156 7.0222 14.05 7.48699 14.05 8.06594V23.9421C14.05 24.5211 14.5156 24.9859 15.0955 24.9859H24.8472C31.3647 24.9859 34.9582 21.7894 34.9582 15.9837C34.9582 8.18825 28.6205 7.0222 24.8472 7.0222H15.0955Z" fill="#282828"/>
<path d="M21.6297 14.1163C21.8421 14.1163 22.0381 14.1489 22.2259 14.2142C22.4138 14.2794 22.569 14.3854 22.7078 14.5159C22.8385 14.6545 22.9447 14.8257 23.0263 15.0214C23.0998 15.2253 23.1407 15.4618 23.1407 15.739C23.1407 15.9836 23.108 16.2038 23.0508 16.4076C22.9855 16.6115 22.8957 16.7909 22.7731 16.9377C22.6506 17.0844 22.4955 17.1986 22.3076 17.2883C22.1198 17.3698 21.8993 17.4188 21.6461 17.4188H20.2168V14.1082H21.6297V14.1163ZM21.5807 16.8153C21.6869 16.8153 21.7849 16.799 21.8911 16.7664C21.9891 16.7338 22.0789 16.6767 22.1524 16.5952C22.2259 16.5136 22.2913 16.4158 22.3403 16.2853C22.3893 16.1549 22.4138 16.0081 22.4138 15.8205C22.4138 15.6575 22.3975 15.5025 22.3648 15.3721C22.3321 15.2416 22.2749 15.1193 22.2014 15.0296C22.1279 14.9399 22.0299 14.8583 21.9074 14.8094C21.7849 14.7605 21.6379 14.736 21.4582 14.736H20.9355V16.8235H21.5807V16.8153Z" fill="white"/>
<path d="M26.0889 14.1163V14.7279H24.3411V15.4373H25.9501V15.9999H24.3411V16.8072H26.1298V17.4188H23.6143V14.1082H26.0889V14.1163Z" fill="white"/>
<path d="M28.5878 14.1163L29.8292 17.4269H29.0696L28.8164 16.693H27.575L27.3137 17.4269H26.5786L27.8282 14.1163H28.5878ZM28.6286 16.1467L28.2121 14.9317H28.2039L27.771 16.1467H28.6286Z" fill="white"/>
<path d="M31.014 14.1163V16.8153H32.6311V17.4269H30.2871V14.1163H31.014Z" fill="white"/>
<path d="M16.7783 17.2966C17.6217 17.2966 18.3055 16.6139 18.3055 15.7718C18.3055 14.9296 17.6217 14.2469 16.7783 14.2469C15.9348 14.2469 15.251 14.9296 15.251 15.7718C15.251 16.6139 15.9348 17.2966 16.7783 17.2966Z" fill="#282828"/>
<path d="M17.9295 23.4446C16.6472 23.4446 15.6182 22.4091 15.6182 21.137V19.3349C15.6182 18.6989 16.1327 18.177 16.7779 18.177C17.415 18.177 17.9377 18.6907 17.9377 19.3349V23.4446H17.9295Z" fill="#282828"/>
</g>
<defs>
<clipPath id="clip0_1203_432">
<rect width="25" height="22" fill="white" transform="translate(12 5)"/>
</clipPath>
</defs>
</svg>
