<svg width="48" height="32" viewBox="0 0 48 32" fill="none" xmlns="http://www.w3.org/2000/svg">
<rect width="48" height="32" rx="4" fill="#282828"/>
<g opacity="0.01">
<rect x="4.6499" y="3.20001" width="38.71" height="25.6" fill="white"/>
</g>
<rect x="18.8999" y="7.66" width="10.21" height="16.68" fill="#F26122"/>
<path d="M19.9998 16C19.9829 12.7535 21.4575 9.67905 23.9998 7.66C19.65 4.23929 13.4017 4.73602 9.64705 8.801C5.89239 12.866 5.89239 19.134 9.64705 23.199C13.4017 27.264 19.65 27.7607 23.9998 24.34C21.4575 22.3209 19.9829 19.2465 19.9998 16Z" fill="#EA1D25"/>
<path fill-rule="evenodd" clip-rule="evenodd" d="M40.1399 22.23V22.57H40.0799V22.23H39.9399V22.16H40.2899V22.23H40.1399ZM40.8199 22.16V22.57H40.7499V22.26L40.6399 22.53H40.5599L40.4399 22.26V22.57H40.3699V22.16H40.4699L40.5999 22.45L40.7199 22.16H40.8199Z" fill="#F69E1E"/>
<path d="M41.16 16C41.1574 20.0594 38.8389 23.7614 35.1879 25.5358C31.5369 27.3103 27.1935 26.846 24 24.34C28.6001 20.718 29.3967 14.0543 25.78 9.45002C25.2616 8.78329 24.6638 8.18219 24 7.66002C27.1935 5.15401 31.5369 4.68976 35.1879 6.46419C38.8389 8.23862 41.1574 11.9407 41.16 16Z" fill="#F69E1E"/>
</svg>
