<svg xmlns="http://www.w3.org/2000/svg" width="17" height="12" viewBox="0 0 17 12" fill="none">
<path d="M0.131836 5.52832L5.53711 0.131836C5.625 0.0439449 5.73047 0 5.85352 0C5.97656 0 6.08203 0.0439449 6.16992 0.131836C6.25781 0.219727 6.30176 0.325195 6.30176 0.448242C6.30176 0.57129 6.25781 0.676757 6.16992 0.764648L1.53809 5.39648H16.1982C16.3271 5.39648 16.4355 5.44043 16.5234 5.52832C16.6113 5.61621 16.6553 5.72461 16.6553 5.85352C16.6553 5.97656 16.6113 6.08203 16.5234 6.16992C16.4355 6.25781 16.3271 6.30176 16.1982 6.30176H1.53809L6.16992 10.9336C6.25781 11.0215 6.30176 11.127 6.30176 11.25C6.30176 11.373 6.25781 11.4785 6.16992 11.5664C6.12891 11.6133 6.08057 11.647 6.0249 11.6675C5.96924 11.688 5.91211 11.6982 5.85352 11.6982C5.79492 11.6982 5.73779 11.688 5.68213 11.6675C5.62646 11.647 5.57812 11.6133 5.53711 11.5664L0.131836 6.16992C0.0439449 6.08203 0 5.9751 0 5.84912C0 5.72314 0.0439449 5.61621 0.131836 5.52832Z" fill="white"/>
</svg>